<svg width="32" height="32" viewBox="0 0 32 32" fill="none" xmlns="http://www.w3.org/2000/svg">
<circle cx="16" cy="16" r="16" fill="#99A7C7"/>
<path d="M22.5741 11.456H9.6001" stroke="white" stroke-width="1.34985" stroke-linecap="round" stroke-linejoin="round"/>
<path d="M20.0475 11.456C19.7578 11.4563 19.4769 11.356 19.2528 11.1723C19.0287 10.9886 18.8753 10.7328 18.8188 10.4486L18.628 9.51753C18.5737 9.31055 18.4518 9.12763 18.2818 8.99769C18.1118 8.86775 17.9033 8.79822 17.6893 8.80014H14.4611C14.2458 8.79651 14.0355 8.86524 13.8639 8.99531C13.6923 9.12538 13.5694 9.30927 13.5147 9.51753L13.3239 10.4486C13.2674 10.7328 13.114 10.9886 12.8899 11.1723C12.6659 11.356 12.385 11.4563 12.0952 11.456" stroke="white" stroke-width="1.34985" stroke-linecap="round" stroke-linejoin="round"/>
<path d="M21.4904 13.9211C21.4904 13.9211 21.0707 19.0649 20.8341 21.2247C20.8201 21.6775 20.6278 22.1064 20.299 22.418C19.9703 22.7296 19.5317 22.8987 19.0788 22.8884H19.033C17.0386 22.924 15.0467 22.924 13.0573 22.8884C12.8358 22.8966 12.6148 22.861 12.4071 22.7837C12.1993 22.7064 12.0088 22.5889 11.8465 22.4379C11.6842 22.287 11.5532 22.1055 11.4611 21.9039C11.369 21.7022 11.3175 21.4844 11.3097 21.2629C11.0654 19.0802 10.6533 13.9516 10.6533 13.9516" stroke="white" stroke-width="1.34985" stroke-linecap="round" stroke-linejoin="round"/>
<path d="M14.333 18.7213H17.841" stroke="white" stroke-width="1.34985" stroke-linecap="round" stroke-linejoin="round"/>
<path d="M13.6523 15.7891H18.5214" stroke="white" stroke-width="1.34985" stroke-linecap="round" stroke-linejoin="round"/>
</svg>
