<svg width="32" height="32" viewBox="0 0 32 32" fill="none" xmlns="http://www.w3.org/2000/svg">
<circle cx="16" cy="16" r="16" fill="#99A7C7"/>
<path d="M17.1992 21.3049H22.3032" stroke="white" stroke-width="1.5" stroke-linecap="round" stroke-linejoin="round"/>
<path d="M16.4792 9.35293C16.7474 9.04305 17.1243 8.84791 17.5321 8.80772C17.9399 8.76753 18.3477 8.88539 18.6712 9.13697L18.7752 9.23296L19.8872 10.1049C20.2311 10.3285 20.476 10.6757 20.5713 11.0747C20.6666 11.4737 20.605 11.8941 20.3992 12.2489L20.3192 12.3609L13.6872 20.8169C13.5791 20.9585 13.4399 21.0732 13.2804 21.1523C13.1209 21.2314 12.9453 21.2727 12.7672 21.273H10.2072L9.63119 18.785C9.59065 18.6122 9.58974 18.4325 9.62854 18.2593C9.66733 18.0861 9.74482 17.9239 9.8552 17.785L16.4792 9.35293Z" stroke="white" stroke-width="1.5" stroke-linecap="round" stroke-linejoin="round"/>
<path d="M15.2393 10.937L19.0793 13.9449" stroke="white" stroke-width="1.5" stroke-linecap="round" stroke-linejoin="round"/>
</svg>
