<svg width="92" height="92" viewBox="0 0 92 92" fill="none" xmlns="http://www.w3.org/2000/svg">
<circle cx="46" cy="46" r="46" fill="#05A7DD"/>
<path d="M45.3448 66.3103C41.747 66.3171 38.2099 65.3825 35.085 63.5994C34.4072 63.1028 33.6071 62.8 32.7704 62.7236C32.5012 62.7227 32.2337 62.765 31.9779 62.8487L27.8073 64.0999C27.649 64.1313 27.486 64.1313 27.3276 64.0999C27.1277 64.0985 26.9306 64.053 26.7503 63.9664C26.57 63.8799 26.4111 63.7546 26.285 63.5994C26.1625 63.4259 26.0819 63.2265 26.0493 63.0167C26.0168 62.8068 26.0332 62.5923 26.0973 62.3899L27.4945 57.7188C27.6113 57.4148 27.6587 57.0886 27.6335 56.7639C27.6082 56.4392 27.5109 56.1243 27.3485 55.842C25.56 52.6537 24.5926 49.0706 24.5333 45.4154C24.5459 39.971 26.6601 34.7416 30.4348 30.8182C32.3772 28.8288 34.6979 27.248 37.2602 26.1687C39.8225 25.0893 42.5749 24.5333 45.3553 24.5333C48.1356 24.5333 50.888 25.0893 53.4503 26.1687C56.0127 27.248 58.3333 28.8288 60.2757 30.8182C62.1446 32.7294 63.631 34.9803 64.6549 37.4495C65.6975 39.9688 66.2359 42.6681 66.2397 45.3946C66.2653 48.3875 65.654 51.3517 64.4463 54.0903C63.3314 56.5843 61.7126 58.8208 59.6918 60.6591C55.7847 64.271 50.6656 66.2874 45.3448 66.3103ZM54.9164 42.8505C54.3885 42.8505 53.8725 43.007 53.4335 43.3003C52.9946 43.5936 52.6524 44.0105 52.4504 44.4982C52.2484 44.986 52.1955 45.5227 52.2985 46.0404C52.4015 46.5582 52.6557 47.0338 53.029 47.4071C53.4023 47.7804 53.8779 48.0346 54.3957 48.1376C54.9134 48.2406 55.4502 48.1877 55.9379 47.9857C56.4256 47.7837 56.8425 47.4416 57.1358 47.0026C57.4291 46.5637 57.5856 46.0476 57.5856 45.5197C57.5856 44.8118 57.3044 44.1328 56.8038 43.6323C56.3032 43.1317 55.6243 42.8505 54.9164 42.8505ZM45.2614 42.8505C44.5791 42.8776 43.9343 43.1691 43.4633 43.6635C42.9923 44.1578 42.7322 44.8161 42.7382 45.4988C42.7341 46.0267 42.8866 46.544 43.1765 46.9852C43.4663 47.4264 43.8805 47.7718 44.3666 47.9776C44.8528 48.1834 45.389 48.2405 45.9076 48.1415C46.4261 48.0426 46.9037 47.7921 47.2799 47.4217C47.6561 47.0514 47.914 46.5777 48.0211 46.0608C48.1281 45.5438 48.0795 45.0068 47.8813 44.5175C47.6831 44.0282 47.3442 43.6087 46.9076 43.3119C46.471 43.0152 45.9561 42.8546 45.4282 42.8505H45.2614ZM35.6898 42.8505C35.1619 42.8505 34.6458 43.007 34.2069 43.3003C33.7679 43.5936 33.4258 44.0105 33.2238 44.4982C33.0218 44.986 32.9689 45.5227 33.0719 46.0404C33.1749 46.5582 33.4291 47.0338 33.8024 47.4071C34.1757 47.7804 34.6513 48.0346 35.169 48.1376C35.6868 48.2406 36.2235 48.1877 36.7113 47.9857C37.199 47.7837 37.6159 47.4416 37.9092 47.0026C38.2025 46.5637 38.359 46.0476 38.359 45.5197C38.359 44.8118 38.0778 44.1328 37.5772 43.6323C37.0766 43.1317 36.3977 42.8505 35.6898 42.8505Z" fill="white"/>
</svg>
