<svg width="85" height="85" viewBox="0 0 85 85" fill="none" xmlns="http://www.w3.org/2000/svg">
<rect width="85" height="85" rx="30" fill="#485470"/>
<path d="M40.2461 64.5339V60.3667C35.9573 59.9016 31.9891 57.8764 29.0962 54.6762C26.2034 51.476 24.5877 47.3241 24.5566 43.0103C24.5566 42.4577 24.7762 41.9277 25.1669 41.5369C25.5577 41.1462 26.0876 40.9267 26.6402 40.9267C27.1928 40.9267 27.7228 41.1462 28.1136 41.5369C28.5043 41.9277 28.7238 42.4577 28.7238 43.0103C28.7238 46.6354 30.1639 50.112 32.7272 52.6753C35.2906 55.2386 38.7672 56.6787 42.3923 56.6787C46.0173 56.6787 49.494 55.2386 52.0573 52.6753C54.6206 50.112 56.0607 46.6354 56.0607 43.0103C55.9837 42.703 55.9777 42.3823 56.0433 42.0724C56.1089 41.7625 56.2442 41.4717 56.4391 41.222C56.6339 40.9722 56.8832 40.7702 57.1678 40.6313C57.4524 40.4923 57.765 40.4201 58.0818 40.4201C58.3985 40.4201 58.7111 40.4923 58.9957 40.6313C59.2804 40.7702 59.5296 40.9722 59.7244 41.222C59.9193 41.4717 60.0546 41.7625 60.1202 42.0724C60.1858 42.3823 60.1799 42.703 60.1028 43.0103C60.0684 47.3435 58.4352 51.5114 55.5167 54.7145C52.5981 57.9176 48.5997 59.9304 44.2883 60.3667V64.5339C44.1754 64.9844 43.9152 65.3843 43.549 65.67C43.1828 65.9557 42.7317 66.1109 42.2672 66.1109C41.8028 66.1109 41.3516 65.9557 40.9854 65.67C40.6193 65.3843 40.3591 64.9844 40.2461 64.5339ZM41.8922 52.3865C39.503 52.3976 37.2069 51.4605 35.5078 49.7809C33.8086 48.1012 32.8451 45.8162 32.8285 43.427V29.7371C32.8505 27.3496 33.8158 25.0678 35.5138 23.3893C37.2118 21.7108 39.5046 20.772 41.8922 20.7776H42.6423C45.0298 20.772 47.3227 21.7108 49.0207 23.3893C50.7187 25.0678 51.6839 27.3496 51.7059 29.7371V43.3228C51.6894 45.712 50.7259 47.997 49.0267 49.6767C47.3275 51.3563 45.0315 52.2934 42.6423 52.2823H41.8922V52.3865Z" fill="white"/>
</svg>
