<svg width="52" height="34" viewBox="0 0 52 34" fill="none" xmlns="http://www.w3.org/2000/svg">
<path fill-rule="evenodd" clip-rule="evenodd" d="M22.7456 0.0732252C20.8401 0.338702 19.0498 0.894886 17.3008 1.76476C13.0245 3.89174 9.81526 7.75407 8.5878 12.2506C8.17868 13.7496 8.13116 13.8609 7.90075 13.8609C7.54638 13.8609 6.11751 14.3869 5.30853 14.8152C2.78827 16.1495 0.902455 18.6035 0.183341 21.4847C-0.0611136 22.4641 -0.0611136 25.0739 0.183341 26.0533C0.934004 29.0605 2.88984 31.5197 5.59716 32.8604C6.81729 33.4646 7.80579 33.7469 9.16485 33.8796C9.72143 33.9338 13.3941 33.9795 17.3263 33.9809L24.4757 33.9836V27.5266V21.0698L22.7201 22.8186C21.2887 24.2446 20.8884 24.5878 20.5519 24.6776C20.1105 24.7952 19.6455 24.7127 19.2372 24.4442C18.7657 24.1341 18.5215 23.1403 18.7872 22.6131C18.9474 22.2954 24.9793 16.2267 25.3102 16.0502C25.637 15.8761 26.3336 15.8585 26.6451 16.0166C26.9616 16.1774 33.008 22.2315 33.1838 22.5637C33.4835 23.13 33.2649 24.1169 32.7673 24.4442C32.359 24.7127 31.894 24.7952 31.4526 24.6776C31.1162 24.5878 30.7158 24.2446 29.2844 22.8186L27.5288 21.0698V27.5349V34L34.2712 33.954C41.5578 33.9043 41.684 33.8956 43.456 33.3177C47.1619 32.1091 50.242 29.0215 51.4373 25.3169C51.9029 23.8741 52.0052 23.1464 51.9998 21.3175C51.9954 19.846 51.9607 19.4959 51.7264 18.5596C50.8038 14.8726 48.4713 11.9208 45.1567 10.2455C43.7168 9.51772 41.6036 8.95786 40.2965 8.95786H39.7589L39.3937 8.30249C38.4197 6.55427 36.4404 4.38827 34.6505 3.11165C32.7759 1.77477 30.5031 0.793047 28.0858 0.276292C26.9317 0.0295075 23.8896 -0.0861221 22.7456 0.0732252Z" fill="url(#paint0_linear_41_2130)"/>
<defs>
<linearGradient id="paint0_linear_41_2130" x1="26" y1="0" x2="26" y2="34" gradientUnits="userSpaceOnUse">
<stop stop-color="#BEEFFF"/>
<stop offset="1" stop-color="#59D2FA"/>
</linearGradient>
</defs>
</svg>
